# xmcd
#
# Track frame offsets: 
#        150
#        15005
#        28655
#        44707
#        66807
#        82367
#        99115
#        117087
#        131135
#        149362
#        165647
#        182690
#        198132
#        219055
#
# Disc length: 3190 seconds
#
# Revision: 0
# Processed by: cddbd v1.4PL0 Copyright (c) Steve Scherf et al.
# Submitted via: ExactAudioCopy v0.90b4
#
DISCID=b80c740e
DTITLE=Foreday Riders - Riders Groove
DYEAR=1993
DGENRE=Blues
TTITLE0=Shake Your Hips
TTITLE1=Dissatisfied
TTITLE2=Midnight Creeper
TTITLE3=Prison Bars All Around Me
TTITLE4=That's Your Problem
TTITLE5=Tremble
TTITLE6=You Got Me Wrong
TTITLE7=Jumpin With Symphony Sid
TTITLE8=Evening
TTITLE9=Bad Advice
TTITLE10=Love Me Baby
TTITLE11=Win, Lose Or Draw
TTITLE12=Two Hours Past Midnight
TTITLE13=Vicki
EXTD=
EXTT0=
EXTT1=
EXTT2=
EXTT3=
EXTT4=
EXTT5=
EXTT6=
EXTT7=
EXTT8=
EXTT9=
EXTT10=
EXTT11=
EXTT12=
EXTT13=
PLAYORDER=
